<svg width="48" height="39" viewBox="0 0 48 39" fill="none" xmlns="http://www.w3.org/2000/svg">
<path d="M40.8 0H7.2C5.29044 0 3.45909 0.75857 2.10883 2.10883C0.75857 3.45909 0 5.29044 0 7.2V31.2C0 33.1096 0.75857 34.9409 2.10883 36.2912C3.45909 37.6414 5.29044 38.4 7.2 38.4H40.8C42.7096 38.4 44.5409 37.6414 45.8912 36.2912C47.2414 34.9409 48 33.1096 48 31.2V7.2C48 5.29044 47.2414 3.45909 45.8912 2.10883C44.5409 0.75857 42.7096 0 40.8 0ZM40.8 4.8L25.2 15.528C24.8352 15.7386 24.4213 15.8495 24 15.8495C23.5787 15.8495 23.1648 15.7386 22.8 15.528L7.2 4.8H40.8Z" fill="white"/>
</svg>
